<?xml version="1.0" standalone="no"?>
<!DOCTYPE svg PUBLIC "-//W3C//DTD SVG 20010904//EN"
 "http://www.w3.org/TR/2001/REC-SVG-20010904/DTD/svg10.dtd">
<svg version="1.0" xmlns="http://www.w3.org/2000/svg"
 width="210.000000pt" height="181.000000pt" viewBox="0 0 210.000000 181.000000"
 preserveAspectRatio="xMidYMid meet">
<metadata>
Created by potrace 1.16, written by Peter Selinger 2001-2019
</metadata>
<g transform="translate(0.000000,181.000000) scale(0.100000,-0.100000)"
fill="#000000" stroke="none">
<path d="M1280 1601 c-56 -55 -27 -99 56 -86 51 7 77 37 72 82 -3 26 -7 28
-51 31 -41 3 -51 -1 -77 -27z"/>
<path d="M777 1533 c-14 -13 -6 -41 16 -56 12 -8 52 -18 87 -21 72 -8 235 -58
207 -64 -9 -2 -48 1 -87 7 -156 25 -219 11 -271 -59 -39 -53 -182 -189 -205
-196 -11 -3 -56 2 -100 10 -188 38 -313 38 -368 2 -31 -20 -33 -37 -6 -61 11
-10 32 -38 47 -61 15 -23 62 -71 105 -105 43 -34 78 -70 78 -79 0 -9 -7 -39
-15 -66 -31 -102 -12 -208 48 -263 14 -13 23 -29 20 -36 -2 -8 8 -22 24 -31
15 -10 47 -35 70 -55 55 -47 114 -63 202 -56 l69 6 17 -40 c27 -58 111 -133
173 -153 64 -21 122 -15 122 13 0 10 9 26 20 36 11 10 20 27 20 37 0 15 -6 19
-27 16 -21 -2 -29 -10 -35 -34 -11 -42 -24 -46 -87 -24 -60 20 -110 64 -142
125 l-22 42 23 33 23 33 -21 18 c-12 9 -26 19 -32 21 -5 2 -15 52 -23 112
l-14 108 41 -6 c99 -15 280 -35 382 -41 61 -4 117 -11 124 -15 9 -6 3 -20 -26
-55 -69 -83 -193 -165 -306 -204 -52 -18 -60 -38 -13 -33 114 13 279 121 367
239 l39 53 72 0 c82 0 218 22 269 43 47 20 88 71 88 110 -1 63 -30 92 -157
156 -58 29 -83 47 -83 59 0 10 16 45 37 78 51 83 73 126 73 143 0 8 5 29 12
46 10 29 8 36 -18 69 -50 64 -69 69 -254 72 -155 1 -169 3 -215 26 -28 14 -81
37 -120 51 -38 14 -87 32 -107 41 -38 16 -109 22 -121 9z m173 -150 c31 -6 28
-8 -51 -34 -46 -15 -90 -28 -97 -28 -26 -2 -5 23 38 46 46 25 59 27 110 16z
m513 -92 c8 -8 29 -112 23 -117 0 -1 -29 -4 -64 -7 l-63 -5 -19 39 c-11 21
-20 55 -20 75 l0 37 66 -6 c36 -2 71 -10 77 -16z m-298 -2 c31 -8 56 -24 81
-51 33 -37 36 -44 30 -82 -7 -46 -37 -92 -57 -89 -173 27 -308 43 -365 43
-103 0 -134 8 -134 34 2 52 24 78 90 103 135 50 263 65 355 42z m-815 -143
l85 -12 -69 -23 c-45 -15 -84 -37 -111 -62 -23 -22 -45 -39 -49 -39 -15 0
-126 94 -126 107 0 39 113 52 270 29z m308 -3 c-3 -19 -39 -29 -65 -19 -14 6
-14 8 3 21 28 21 66 19 62 -2z m-40 -71 c7 -5 10 -15 8 -23 -3 -8 -7 -68 -10
-133 -3 -66 -9 -123 -14 -128 -14 -14 -85 13 -112 42 -15 16 -39 32 -53 36
-28 6 -34 18 -17 29 6 4 20 25 31 48 54 106 121 157 167 129z m-178 -8 c0 -16
-107 -143 -121 -144 -8 0 -26 11 -38 24 l-22 23 28 33 c29 35 94 69 131 70 12
0 22 -3 22 -6z m439 -4 c156 -14 392 -73 458 -116 43 -27 39 -80 -19 -206
l-31 -68 -71 0 c-174 1 -489 50 -521 81 -13 13 -8 229 6 281 11 44 5 43 178
28z m702 -191 c70 -30 86 -68 54 -128 -21 -42 -82 -63 -199 -69 -82 -4 -98 -2
-93 9 41 96 57 141 63 178 l7 44 59 -7 c32 -3 81 -15 109 -27z m-1121 -91 c19
-11 63 -29 97 -39 l62 -19 6 -48 c19 -142 29 -200 42 -232 13 -31 12 -36 -3
-47 -47 -34 -180 1 -208 54 -8 15 -33 46 -56 68 -23 22 -48 52 -56 67 -18 36
-18 149 1 194 14 33 17 35 47 29 18 -4 49 -16 68 -27z"/>
<path d="M531 876 c-18 -21 26 -51 48 -34 9 7 18 14 20 15 2 1 -2 9 -9 18 -16
19 -44 19 -59 1z"/>
<path d="M1852 1138 c-8 -8 -9 -15 -1 -25 14 -16 43 -17 69 -1 18 12 17 13
-12 25 -37 16 -41 16 -56 1z"/>
<path d="M1921 781 c-20 -13 -6 -39 24 -47 27 -7 55 9 55 31 0 23 -52 33 -79
16z"/>
<path d="M1315 366 c-63 -14 -75 -22 -75 -50 0 -36 40 -66 88 -66 22 0 43 4
47 10 3 5 33 17 67 26 34 10 55 20 47 22 -8 3 -30 17 -49 32 -46 36 -65 40
-125 26z"/>
</g>
</svg>
